<svg width="6" height="6" viewBox="0 0 6 6" fill="none" xmlns="http://www.w3.org/2000/svg">
<path id="Star 4" d="M2.90384 0.336949C2.93145 0.240206 3.06855 0.240206 3.09616 0.336949L3.54638 1.91453C3.56119 1.96642 3.61451 1.99721 3.66686 1.98408L5.25819 1.5852C5.35578 1.56074 5.42433 1.67947 5.35435 1.75175L4.21324 2.93044C4.1757 2.96922 4.1757 3.03078 4.21324 3.06956L5.35435 4.24825C5.42433 4.32053 5.35578 4.43926 5.25819 4.4148L3.66686 4.01592C3.61451 4.00279 3.56119 4.03358 3.54638 4.08547L3.09616 5.66305C3.06855 5.75979 2.93145 5.75979 2.90384 5.66305L2.45362 4.08547C2.43881 4.03358 2.38549 4.00279 2.33314 4.01592L0.741811 4.4148C0.644224 4.43926 0.575673 4.32053 0.64565 4.24825L1.78676 3.06956C1.8243 3.03078 1.8243 2.96922 1.78676 2.93044L0.64565 1.75175C0.575673 1.67947 0.644224 1.56074 0.74181 1.5852L2.33314 1.98408C2.38549 1.99721 2.43881 1.96642 2.45362 1.91453L2.90384 0.336949Z" fill="#FF0000"/>
</svg>
