<svg width="142" height="30" viewBox="0 0 142 30" fill="none" xmlns="http://www.w3.org/2000/svg">
<g clip-path="url(#clip0_452_2778)">
<path d="M57.5143 11.4253H62.1621C61.3868 6.61337 57.1083 3.26172 51.5402 3.26172C44.952 3.26172 40.0083 7.97827 40.0083 15.8776C40.0083 23.6358 44.7296 28.4477 51.6749 28.4477C57.9081 28.4477 62.3702 24.5438 62.3702 18.224V15.2796H52.1543V18.7505H57.957C57.8836 22.2471 55.4862 24.4603 51.6994 24.4603C47.484 24.4603 44.5949 21.3848 44.5949 15.8299C44.5949 10.3107 47.533 7.24715 51.6014 7.24715C54.6374 7.24715 56.7145 8.82662 57.5143 11.4253Z" fill="#171321"/>
<path d="M65.4431 28.112H69.893V9.73454H65.4431V28.112ZM67.6875 6.81401C69.1014 6.81401 70.2562 5.75904 70.2562 4.46765C70.2562 3.17626 69.1014 2.10938 67.6875 2.10938C66.2735 2.10938 65.1064 3.16236 65.1064 4.46765C65.1064 5.77295 66.2531 6.81401 67.6793 6.81401H67.6875Z" fill="#171321"/>
<path d="M83.2183 9.73488H79.4927V5.32031H75.0427V9.73488H72.3638V13.0865H75.0427V23.3103C75.0182 26.7693 77.6013 28.4759 80.9433 28.3746C81.8335 28.3575 82.7164 28.212 83.5631 27.9434L82.8123 24.554C82.3871 24.6615 81.9498 24.7183 81.5105 24.7229C80.3904 24.7229 79.4927 24.3395 79.4927 22.5911V13.0766H83.2183V9.73488Z" fill="#171321"/>
<path d="M86.6624 28.1122H102.312V24.3891H91.2245V3.5957H86.6624V28.1122Z" fill="#171321"/>
<path d="M110.836 28.4837C113.799 28.4837 115.567 27.1307 116.38 25.587H116.526V28.1122H120.811V15.8062C120.811 10.9466 116.743 9.48633 113.14 9.48633C109.169 9.48633 106.121 11.2088 105.137 14.5605L109.293 15.1367C109.734 13.879 110.989 12.8022 113.17 12.8022C115.237 12.8022 116.367 13.8314 116.367 15.6393V15.7108C116.367 16.9545 115.027 17.0161 111.695 17.3618C108.033 17.7453 104.529 18.8102 104.529 22.9526C104.517 26.5684 107.233 28.4837 110.836 28.4837ZM112.299 25.3049C110.442 25.3049 109.114 24.4784 109.114 22.887C109.114 21.2221 110.601 20.5287 112.582 20.2526C113.752 20.0976 116.088 19.8095 116.663 19.3565V21.5221C116.675 23.5625 114.978 25.2989 112.299 25.2989V25.3049Z" fill="#171321"/>
<path d="M124.088 28.1122H128.464V25.2156H128.721C129.423 26.5566 130.886 28.4361 134.132 28.4361C138.582 28.4361 141.914 24.999 141.914 18.9434C141.914 12.8142 138.484 9.48643 134.12 9.48643C130.788 9.48643 129.399 11.4374 128.721 12.7666H128.534V3.5957H124.088V28.1122ZM128.452 18.9195C128.452 15.3434 130.025 13.0407 132.89 13.0407C135.852 13.0407 137.379 15.4944 137.379 18.9195C137.379 22.3447 135.83 24.8798 132.89 24.8798C130.05 24.8798 128.452 22.4858 128.452 18.9195Z" fill="#171321"/>
<path d="M31.6184 11.9933L31.5756 11.8821L27.2501 0.895333C27.1625 0.679605 27.0067 0.496603 26.8053 0.372817C26.6549 0.279115 26.4841 0.221009 26.3066 0.203154C26.1291 0.185297 25.9498 0.20819 25.7829 0.269996C25.6162 0.331804 25.4664 0.430804 25.346 0.559065C25.2257 0.687324 25.1377 0.841275 25.0894 1.00858L22.1697 9.71255H10.346L7.42628 1.00858C7.37757 0.841526 7.28947 0.687864 7.16897 0.55985C7.04847 0.431835 6.89891 0.33301 6.73222 0.271254C6.56555 0.209497 6.38636 0.18652 6.20894 0.204153C6.03153 0.221787 5.8608 0.279542 5.71036 0.372817C5.50892 0.496603 5.35312 0.679605 5.26557 0.895333L0.942137 11.8841L0.89725 11.9933C0.2748 13.5774 0.198116 15.3156 0.67876 16.9458C1.1594 18.576 2.17131 20.0099 3.56192 21.0311L3.57825 21.043L3.61495 21.0708L10.195 25.8728L13.4595 28.2748L15.4427 29.735C15.6754 29.9063 15.9591 29.9989 16.2507 29.9989C16.5423 29.9989 16.826 29.9063 17.0586 29.735L19.0418 28.2748L22.3064 25.8728L28.9333 21.043L28.9517 21.0291C30.3422 20.0083 31.3542 18.5748 31.8353 16.945C32.3162 15.3152 32.2401 13.5773 31.6184 11.9933Z" fill="#E24329"/>
<path d="M31.6184 11.9941L31.5756 11.8828C29.4681 12.3039 27.4823 13.1737 25.7606 14.4298L16.2629 21.4232L22.3105 25.8735L28.9374 21.0437L28.9558 21.0298C30.3457 20.0084 31.3568 18.5748 31.8371 16.945C32.3172 15.3152 32.2405 13.5777 31.6184 11.9941Z" fill="#FC6D26"/>
<path d="M10.1951 25.8742L13.4596 28.2761L15.4428 29.7364C15.6755 29.9077 15.9591 30.0003 16.2507 30.0003C16.5424 30.0003 16.826 29.9077 17.0587 29.7364L19.0419 28.2761L22.3064 25.8742L16.2589 21.4238L10.1951 25.8742Z" fill="#FCA326"/>
<path d="M6.75501 14.4298C5.03392 13.1743 3.04884 12.3052 0.942137 11.8848L0.89725 11.994C0.2748 13.5781 0.198116 15.3163 0.67876 16.9465C1.1594 18.5767 2.17131 20.0105 3.56192 21.0317L3.57825 21.0436L3.61495 21.0715L10.195 25.8734L16.2466 21.4231L6.75501 14.4298Z" fill="#FC6D26"/>
</g>
<defs>
<clipPath id="clip0_452_2778">
<rect width="141.802" height="30" fill="white" transform="translate(0.19751)"/>
</clipPath>
</defs>
</svg>
