<svg width="251" height="270" viewBox="0 0 251 270" fill="none" xmlns="http://www.w3.org/2000/svg">
<rect width="251" height="270" rx="16" fill="white"/>
<rect x="25" y="157" width="22" height="89" rx="11" fill="#1E1E1E"/>
<rect x="61" y="121" width="22" height="125" rx="11" fill="#FF3C78"/>
<rect x="97" y="171" width="22" height="75" rx="11" fill="#FF3C78"/>
<rect x="133" y="196" width="22" height="50" rx="11" fill="#1E1E1E"/>
<rect x="169" y="157" width="22" height="89" rx="11" fill="#1E1E1E"/>
<rect x="205" y="157" width="22" height="89" rx="11" fill="#1E1E1E"/>
<path d="M38.6914 60.0508V65.8125H35.6445V60.0508H38.6914ZM38.3203 91.9453V97.1992H35.2734V91.9453H38.3203ZM40.4688 85.5391C40.4688 84.7969 40.332 84.1654 40.0586 83.6445C39.7982 83.1237 39.3685 82.6615 38.7695 82.2578C38.1836 81.8542 37.3893 81.4635 36.3867 81.0859C34.694 80.4349 33.2031 79.7448 31.9141 79.0156C30.638 78.2734 29.6419 77.3555 28.9258 76.2617C28.2096 75.1549 27.8516 73.7552 27.8516 72.0625C27.8516 70.4479 28.2357 69.0482 29.0039 67.8633C29.7721 66.6784 30.8333 65.7669 32.1875 65.1289C33.5547 64.4779 35.1432 64.1523 36.9531 64.1523C38.3333 64.1523 39.5833 64.3607 40.7031 64.7773C41.8229 65.181 42.7865 65.7799 43.5938 66.5742C44.401 67.3555 45.0195 68.3125 45.4492 69.4453C45.8789 70.5781 46.0938 71.8737 46.0938 73.332H40.4883C40.4883 72.5508 40.4036 71.8607 40.2344 71.2617C40.0651 70.6628 39.8177 70.1615 39.4922 69.7578C39.1797 69.3542 38.8021 69.0547 38.3594 68.8594C37.9167 68.651 37.4284 68.5469 36.8945 68.5469C36.1003 68.5469 35.4492 68.7031 34.9414 69.0156C34.4336 69.3281 34.0625 69.7513 33.8281 70.2852C33.6068 70.806 33.4961 71.4049 33.4961 72.082C33.4961 72.7461 33.6133 73.3255 33.8477 73.8203C34.0951 74.3151 34.5182 74.7708 35.1172 75.1875C35.7161 75.5911 36.5365 76.0078 37.5781 76.4375C39.2708 77.0885 40.7552 77.7917 42.0312 78.5469C43.3073 79.3021 44.3034 80.2266 45.0195 81.3203C45.7357 82.4141 46.0938 83.8073 46.0938 85.5C46.0938 87.1797 45.7031 88.612 44.9219 89.7969C44.1406 90.9688 43.0469 91.8672 41.6406 92.4922C40.2344 93.1042 38.6068 93.4102 36.7578 93.4102C35.5599 93.4102 34.3685 93.2539 33.1836 92.9414C31.9987 92.6159 30.9245 92.0951 29.9609 91.3789C28.9974 90.6628 28.2292 89.7122 27.6562 88.5273C27.0833 87.3294 26.7969 85.8581 26.7969 84.1133H32.4219C32.4219 85.0638 32.5456 85.8581 32.793 86.4961C33.0404 87.1211 33.3659 87.6224 33.7695 88C34.1862 88.3646 34.6549 88.625 35.1758 88.7812C35.6966 88.9375 36.224 89.0156 36.7578 89.0156C37.5911 89.0156 38.2747 88.8659 38.8086 88.5664C39.3555 88.2669 39.7656 87.8568 40.0391 87.3359C40.3255 86.8021 40.4688 86.2031 40.4688 85.5391ZM73.5938 64.5039V93H67.9688V70.9883L61.2109 73.1367V68.7031L72.9883 64.5039H73.5938ZM88.6133 76.3398H91.6211C92.5846 76.3398 93.3789 76.1771 94.0039 75.8516C94.6289 75.513 95.0911 75.0443 95.3906 74.4453C95.7031 73.8333 95.8594 73.1237 95.8594 72.3164C95.8594 71.5872 95.7161 70.9427 95.4297 70.3828C95.1562 69.8099 94.7331 69.3672 94.1602 69.0547C93.5872 68.7292 92.8646 68.5664 91.9922 68.5664C91.3021 68.5664 90.6641 68.7031 90.0781 68.9766C89.4922 69.25 89.0234 69.6341 88.6719 70.1289C88.3203 70.6237 88.1445 71.2227 88.1445 71.9258H82.5C82.5 70.3633 82.9167 69.0026 83.75 67.8438C84.5964 66.6849 85.7292 65.7799 87.1484 65.1289C88.5677 64.4779 90.1302 64.1523 91.8359 64.1523C93.763 64.1523 95.4492 64.4648 96.8945 65.0898C98.3398 65.7018 99.4661 66.6068 100.273 67.8047C101.081 69.0026 101.484 70.487 101.484 72.2578C101.484 73.1562 101.276 74.0286 100.859 74.875C100.443 75.7083 99.8438 76.4635 99.0625 77.1406C98.2943 77.8047 97.3568 78.3385 96.25 78.7422C95.1432 79.1328 93.8997 79.3281 92.5195 79.3281H88.6133V76.3398ZM88.6133 80.6172V77.707H92.5195C94.069 77.707 95.4297 77.8828 96.6016 78.2344C97.7734 78.5859 98.7565 79.0938 99.5508 79.7578C100.345 80.4089 100.944 81.1836 101.348 82.082C101.751 82.9674 101.953 83.9505 101.953 85.0312C101.953 86.3594 101.699 87.5443 101.191 88.5859C100.684 89.6146 99.9674 90.487 99.043 91.2031C98.1315 91.9193 97.0638 92.4661 95.8398 92.8438C94.6159 93.2083 93.2812 93.3906 91.8359 93.3906C90.638 93.3906 89.4596 93.2279 88.3008 92.9023C87.1549 92.5638 86.1133 92.0625 85.1758 91.3984C84.2513 90.7214 83.5091 89.875 82.9492 88.8594C82.4023 87.8307 82.1289 86.6133 82.1289 85.207H87.7734C87.7734 85.9362 87.9557 86.5872 88.3203 87.1602C88.6849 87.7331 89.1862 88.1823 89.8242 88.5078C90.4753 88.8333 91.1979 88.9961 91.9922 88.9961C92.8906 88.9961 93.6589 88.8333 94.2969 88.5078C94.9479 88.1693 95.4427 87.7005 95.7812 87.1016C96.1328 86.4896 96.3086 85.7799 96.3086 84.9727C96.3086 83.931 96.1198 83.0977 95.7422 82.4727C95.3646 81.8346 94.8242 81.3659 94.1211 81.0664C93.418 80.7669 92.5846 80.6172 91.6211 80.6172H88.6133ZM106.328 90.2852C106.328 89.4518 106.615 88.7552 107.188 88.1953C107.773 87.6354 108.548 87.3555 109.512 87.3555C110.475 87.3555 111.243 87.6354 111.816 88.1953C112.402 88.7552 112.695 89.4518 112.695 90.2852C112.695 91.1185 112.402 91.8151 111.816 92.375C111.243 92.9349 110.475 93.2148 109.512 93.2148C108.548 93.2148 107.773 92.9349 107.188 92.375C106.615 91.8151 106.328 91.1185 106.328 90.2852ZM136.738 64.5625V67.5898L125.742 93H119.805L130.801 68.957H116.641V64.5625H136.738ZM159.531 76.2812V81.2031C159.531 83.3385 159.303 85.181 158.848 86.7305C158.392 88.2669 157.734 89.5299 156.875 90.5195C156.029 91.4961 155.02 92.2188 153.848 92.6875C152.676 93.1562 151.374 93.3906 149.941 93.3906C148.796 93.3906 147.728 93.2474 146.738 92.9609C145.749 92.6615 144.857 92.1992 144.062 91.5742C143.281 90.9492 142.604 90.1615 142.031 89.2109C141.471 88.2474 141.042 87.1016 140.742 85.7734C140.443 84.4453 140.293 82.9219 140.293 81.2031V76.2812C140.293 74.1458 140.521 72.3164 140.977 70.793C141.445 69.2565 142.103 68 142.949 67.0234C143.809 66.0469 144.824 65.3307 145.996 64.875C147.168 64.4062 148.47 64.1719 149.902 64.1719C151.048 64.1719 152.109 64.3216 153.086 64.6211C154.076 64.9076 154.967 65.3568 155.762 65.9688C156.556 66.5807 157.233 67.3685 157.793 68.332C158.353 69.2826 158.783 70.4219 159.082 71.75C159.382 73.0651 159.531 74.5755 159.531 76.2812ZM153.887 81.9453V75.5195C153.887 74.4909 153.828 73.5924 153.711 72.8242C153.607 72.056 153.444 71.4049 153.223 70.8711C153.001 70.3242 152.728 69.8815 152.402 69.543C152.077 69.2044 151.706 68.957 151.289 68.8008C150.872 68.6445 150.41 68.5664 149.902 68.5664C149.264 68.5664 148.698 68.6901 148.203 68.9375C147.721 69.1849 147.311 69.582 146.973 70.1289C146.634 70.6628 146.374 71.3789 146.191 72.2773C146.022 73.1628 145.938 74.2435 145.938 75.5195V81.9453C145.938 82.974 145.99 83.8789 146.094 84.6602C146.211 85.4414 146.38 86.112 146.602 86.6719C146.836 87.2188 147.109 87.668 147.422 88.0195C147.747 88.3581 148.118 88.6055 148.535 88.7617C148.965 88.918 149.434 88.9961 149.941 88.9961C150.566 88.9961 151.12 88.8724 151.602 88.625C152.096 88.3646 152.513 87.9609 152.852 87.4141C153.203 86.8542 153.464 86.125 153.633 85.2266C153.802 84.3281 153.887 83.2344 153.887 81.9453Z" fill="#1E1E1E"/>
<path d="M32.5469 39.7734V41H26.5234V39.7734H32.5469ZM26.8281 29.625V41H25.3203V29.625H26.8281ZM31.75 34.5156V35.7422H26.5234V34.5156H31.75ZM32.4688 29.625V30.8594H26.5234V29.625H32.4688ZM35.3906 29.625L38.125 33.9844L40.8594 29.625H42.6172L39.0234 35.2578L42.7031 41H40.9297L38.125 36.5547L35.3203 41H33.5469L37.2266 35.2578L33.6328 29.625H35.3906ZM48.6406 36.5391H45.6016V35.3125H48.6406C49.2292 35.3125 49.7057 35.2188 50.0703 35.0312C50.4349 34.8438 50.7005 34.5833 50.8672 34.25C51.0391 33.9167 51.125 33.5365 51.125 33.1094C51.125 32.7188 51.0391 32.3516 50.8672 32.0078C50.7005 31.6641 50.4349 31.388 50.0703 31.1797C49.7057 30.9661 49.2292 30.8594 48.6406 30.8594H45.9531V41H44.4453V29.625H48.6406C49.5 29.625 50.2266 29.7734 50.8203 30.0703C51.4141 30.3672 51.8646 30.7786 52.1719 31.3047C52.4792 31.8255 52.6328 32.4219 52.6328 33.0938C52.6328 33.8229 52.4792 34.4453 52.1719 34.9609C51.8646 35.4766 51.4141 35.8698 50.8203 36.1406C50.2266 36.4062 49.5 36.5391 48.6406 36.5391ZM61.7656 39.7734V41H55.7422V39.7734H61.7656ZM56.0469 29.625V41H54.5391V29.625H56.0469ZM60.9688 34.5156V35.7422H55.7422V34.5156H60.9688ZM61.6875 29.625V30.8594H55.7422V29.625H61.6875ZM72.3828 29.625V41H70.8672L65.1406 32.2266V41H63.6328V29.625H65.1406L70.8906 38.4219V29.625H72.3828ZM81.1172 38.125C81.1172 37.8594 81.0755 37.625 80.9922 37.4219C80.9141 37.2135 80.7734 37.026 80.5703 36.8594C80.3724 36.6927 80.0964 36.5339 79.7422 36.3828C79.3932 36.2318 78.9505 36.0781 78.4141 35.9219C77.8516 35.7552 77.3438 35.5703 76.8906 35.3672C76.4375 35.1589 76.0495 34.9219 75.7266 34.6562C75.4036 34.3906 75.1562 34.0859 74.9844 33.7422C74.8125 33.3984 74.7266 33.0052 74.7266 32.5625C74.7266 32.1198 74.8177 31.7109 75 31.3359C75.1823 30.9609 75.4427 30.6354 75.7812 30.3594C76.125 30.0781 76.5339 29.8594 77.0078 29.7031C77.4818 29.5469 78.0104 29.4688 78.5938 29.4688C79.4479 29.4688 80.1719 29.6328 80.7656 29.9609C81.3646 30.2839 81.8203 30.7083 82.1328 31.2344C82.4453 31.7552 82.6016 32.3125 82.6016 32.9062H81.1016C81.1016 32.4792 81.0104 32.1016 80.8281 31.7734C80.6458 31.4401 80.3698 31.1797 80 30.9922C79.6302 30.7995 79.1615 30.7031 78.5938 30.7031C78.0573 30.7031 77.6146 30.7839 77.2656 30.9453C76.9167 31.1068 76.6562 31.3255 76.4844 31.6016C76.3177 31.8776 76.2344 32.1927 76.2344 32.5469C76.2344 32.7865 76.2839 33.0052 76.3828 33.2031C76.487 33.3958 76.6458 33.5755 76.8594 33.7422C77.0781 33.9089 77.3542 34.0625 77.6875 34.2031C78.026 34.3438 78.4297 34.4792 78.8984 34.6094C79.5443 34.7917 80.1016 34.9948 80.5703 35.2188C81.0391 35.4427 81.4245 35.6953 81.7266 35.9766C82.0339 36.2526 82.2604 36.5677 82.4062 36.9219C82.5573 37.2708 82.6328 37.6667 82.6328 38.1094C82.6328 38.5729 82.5391 38.9922 82.3516 39.3672C82.1641 39.7422 81.8958 40.0625 81.5469 40.3281C81.1979 40.5938 80.7786 40.7995 80.2891 40.9453C79.8047 41.0859 79.263 41.1562 78.6641 41.1562C78.138 41.1562 77.6198 41.0833 77.1094 40.9375C76.6042 40.7917 76.1432 40.5729 75.7266 40.2812C75.3151 39.9896 74.9844 39.6302 74.7344 39.2031C74.4896 38.7708 74.3672 38.2708 74.3672 37.7031H75.8672C75.8672 38.0938 75.9427 38.4297 76.0938 38.7109C76.2448 38.987 76.4505 39.2161 76.7109 39.3984C76.9766 39.5807 77.276 39.7161 77.6094 39.8047C77.9479 39.888 78.2995 39.9297 78.6641 39.9297C79.1901 39.9297 79.6354 39.8568 80 39.7109C80.3646 39.5651 80.6406 39.3568 80.8281 39.0859C81.0208 38.8151 81.1172 38.4948 81.1172 38.125ZM91.7812 39.7734V41H85.7578V39.7734H91.7812ZM86.0625 29.625V41H84.5547V29.625H86.0625ZM90.9844 34.5156V35.7422H85.7578V34.5156H90.9844ZM91.7031 29.625V30.8594H85.7578V29.625H91.7031ZM99.7109 38.125C99.7109 37.8594 99.6693 37.625 99.5859 37.4219C99.5078 37.2135 99.3672 37.026 99.1641 36.8594C98.9661 36.6927 98.6901 36.5339 98.3359 36.3828C97.987 36.2318 97.5443 36.0781 97.0078 35.9219C96.4453 35.7552 95.9375 35.5703 95.4844 35.3672C95.0312 35.1589 94.6432 34.9219 94.3203 34.6562C93.9974 34.3906 93.75 34.0859 93.5781 33.7422C93.4062 33.3984 93.3203 33.0052 93.3203 32.5625C93.3203 32.1198 93.4115 31.7109 93.5938 31.3359C93.776 30.9609 94.0365 30.6354 94.375 30.3594C94.7188 30.0781 95.1276 29.8594 95.6016 29.7031C96.0755 29.5469 96.6042 29.4688 97.1875 29.4688C98.0417 29.4688 98.7656 29.6328 99.3594 29.9609C99.9583 30.2839 100.414 30.7083 100.727 31.2344C101.039 31.7552 101.195 32.3125 101.195 32.9062H99.6953C99.6953 32.4792 99.6042 32.1016 99.4219 31.7734C99.2396 31.4401 98.9635 31.1797 98.5938 30.9922C98.224 30.7995 97.7552 30.7031 97.1875 30.7031C96.651 30.7031 96.2083 30.7839 95.8594 30.9453C95.5104 31.1068 95.25 31.3255 95.0781 31.6016C94.9115 31.8776 94.8281 32.1927 94.8281 32.5469C94.8281 32.7865 94.8776 33.0052 94.9766 33.2031C95.0807 33.3958 95.2396 33.5755 95.4531 33.7422C95.6719 33.9089 95.9479 34.0625 96.2812 34.2031C96.6198 34.3438 97.0234 34.4792 97.4922 34.6094C98.138 34.7917 98.6953 34.9948 99.1641 35.2188C99.6328 35.4427 100.018 35.6953 100.32 35.9766C100.628 36.2526 100.854 36.5677 101 36.9219C101.151 37.2708 101.227 37.6667 101.227 38.1094C101.227 38.5729 101.133 38.9922 100.945 39.3672C100.758 39.7422 100.49 40.0625 100.141 40.3281C99.7917 40.5938 99.3724 40.7995 98.8828 40.9453C98.3984 41.0859 97.8568 41.1562 97.2578 41.1562C96.7318 41.1562 96.2135 41.0833 95.7031 40.9375C95.1979 40.7917 94.737 40.5729 94.3203 40.2812C93.9089 39.9896 93.5781 39.6302 93.3281 39.2031C93.0833 38.7708 92.9609 38.2708 92.9609 37.7031H94.4609C94.4609 38.0938 94.5365 38.4297 94.6875 38.7109C94.8385 38.987 95.0443 39.2161 95.3047 39.3984C95.5703 39.5807 95.8698 39.7161 96.2031 39.8047C96.5417 39.888 96.8932 39.9297 97.2578 39.9297C97.7839 39.9297 98.2292 39.8568 98.5938 39.7109C98.9583 39.5651 99.2344 39.3568 99.4219 39.0859C99.6146 38.8151 99.7109 38.4948 99.7109 38.125Z" fill="#172327"/>
<rect x="174" y="66" width="53" height="26" rx="13" fill="#FF3C78"/>
<path d="M190.305 78.4238V79.4434H184.457V78.4238H190.305ZM187.926 75.9336V82.1445H186.842V75.9336H187.926ZM195.08 74.4219V83H193.996V75.7754L191.811 76.5723V75.5938L194.91 74.4219H195.08ZM198.402 82.4258C198.402 82.2422 198.459 82.0879 198.572 81.9629C198.689 81.834 198.857 81.7695 199.076 81.7695C199.295 81.7695 199.461 81.834 199.574 81.9629C199.691 82.0879 199.75 82.2422 199.75 82.4258C199.75 82.6055 199.691 82.7578 199.574 82.8828C199.461 83.0078 199.295 83.0703 199.076 83.0703C198.857 83.0703 198.689 83.0078 198.572 82.8828C198.459 82.7578 198.402 82.6055 198.402 82.4258ZM207.197 80.1289V81.0195H201.033V80.3809L204.854 74.4688H205.738L204.789 76.1797L202.264 80.1289H207.197ZM206.008 74.4688V83H204.924V74.4688H206.008ZM208.088 76.5605V76.1094C208.088 75.7852 208.158 75.4902 208.299 75.2246C208.439 74.959 208.641 74.7461 208.902 74.5859C209.164 74.4258 209.475 74.3457 209.834 74.3457C210.201 74.3457 210.514 74.4258 210.771 74.5859C211.033 74.7461 211.234 74.959 211.375 75.2246C211.516 75.4902 211.586 75.7852 211.586 76.1094V76.5605C211.586 76.877 211.516 77.168 211.375 77.4336C211.238 77.6992 211.039 77.9121 210.777 78.0723C210.52 78.2324 210.209 78.3125 209.846 78.3125C209.482 78.3125 209.168 78.2324 208.902 78.0723C208.641 77.9121 208.439 77.6992 208.299 77.4336C208.158 77.168 208.088 76.877 208.088 76.5605ZM208.902 76.1094V76.5605C208.902 76.7402 208.936 76.9102 209.002 77.0703C209.072 77.2305 209.178 77.3613 209.318 77.4629C209.459 77.5605 209.635 77.6094 209.846 77.6094C210.057 77.6094 210.23 77.5605 210.367 77.4629C210.504 77.3613 210.605 77.2305 210.672 77.0703C210.738 76.9102 210.771 76.7402 210.771 76.5605V76.1094C210.771 75.9258 210.736 75.7539 210.666 75.5938C210.6 75.4297 210.496 75.2988 210.355 75.2012C210.219 75.0996 210.045 75.0488 209.834 75.0488C209.627 75.0488 209.453 75.0996 209.312 75.2012C209.176 75.2988 209.072 75.4297 209.002 75.5938C208.936 75.7539 208.902 75.9258 208.902 76.1094ZM212.242 81.3652V80.9082C212.242 80.5879 212.312 80.2949 212.453 80.0293C212.594 79.7637 212.795 79.5508 213.057 79.3906C213.318 79.2305 213.629 79.1504 213.988 79.1504C214.355 79.1504 214.668 79.2305 214.926 79.3906C215.188 79.5508 215.389 79.7637 215.529 80.0293C215.67 80.2949 215.74 80.5879 215.74 80.9082V81.3652C215.74 81.6855 215.67 81.9785 215.529 82.2441C215.393 82.5098 215.193 82.7227 214.932 82.8828C214.674 83.043 214.363 83.123 214 83.123C213.637 83.123 213.324 83.043 213.062 82.8828C212.801 82.7227 212.598 82.5098 212.453 82.2441C212.312 81.9785 212.242 81.6855 212.242 81.3652ZM213.057 80.9082V81.3652C213.057 81.5449 213.09 81.7168 213.156 81.8809C213.227 82.041 213.332 82.1719 213.473 82.2734C213.613 82.3711 213.789 82.4199 214 82.4199C214.211 82.4199 214.385 82.3711 214.521 82.2734C214.662 82.1719 214.766 82.041 214.832 81.8809C214.898 81.7207 214.932 81.5488 214.932 81.3652V80.9082C214.932 80.7246 214.896 80.5527 214.826 80.3926C214.76 80.2324 214.656 80.1035 214.516 80.0059C214.379 79.9043 214.203 79.8535 213.988 79.8535C213.781 79.8535 213.607 79.9043 213.467 80.0059C213.33 80.1035 213.227 80.2324 213.156 80.3926C213.09 80.5527 213.057 80.7246 213.057 80.9082ZM214.258 75.6816L210.092 82.3496L209.482 81.9629L213.648 75.2949L214.258 75.6816Z" fill="white"/>
</svg>
