<svg width="167" height="30" viewBox="0 0 167 30" fill="none" xmlns="http://www.w3.org/2000/svg">
<g clip-path="url(#clip0_452_2780)">
<path fill-rule="evenodd" clip-rule="evenodd" d="M13.4064 21.4199L6.04471 14.2186C4.79379 12.9948 2.76567 12.9948 1.51435 14.2186C0.263444 15.4422 0.263444 17.4261 1.51435 18.6501L11.1412 28.0674C12.3922 29.291 14.4207 29.291 15.6716 28.0674L24.7327 19.2033L20.2028 14.7716L13.4064 21.4199Z" fill="#810C30"/>
<path fill-rule="evenodd" clip-rule="evenodd" d="M41.1547 7.57195L26.9987 21.4195L12.8411 7.57038C11.5898 6.34633 9.56165 6.34633 8.31074 7.57038C7.05983 8.79404 7.05983 10.778 8.31074 12.002L24.7335 28.067C25.9844 29.2907 28.0126 29.2907 29.2638 28.067L45.6851 12.0036C46.9359 10.7795 46.9359 8.79561 45.6851 7.57195C44.4337 6.34829 42.4056 6.34829 41.1547 7.57195Z" fill="#FFB41F"/>
<path fill-rule="evenodd" clip-rule="evenodd" d="M52.4808 18.6528L42.8555 28.0684C41.6046 29.2921 39.5765 29.2921 38.3255 28.0684L15.1064 5.35516C13.8555 4.1315 13.8555 2.14756 15.1064 0.923898C16.3577 -0.300153 18.3858 -0.300153 19.6367 0.923898L40.5903 21.4209L47.9505 14.2212C49.2017 12.9975 51.2299 12.9975 52.4808 14.2212C53.7317 15.4453 53.7317 17.4292 52.4808 18.6528Z" fill="#F56358"/>
<path fill-rule="evenodd" clip-rule="evenodd" d="M38.8891 0.923604C37.6382 -0.300056 35.6101 -0.300056 34.3588 0.923604L20.2029 14.7711L24.7329 19.2028L38.8891 5.35525C40.1401 4.1312 40.1401 2.14726 38.8891 0.923604Z" fill="#810C30"/>
<path fill-rule="evenodd" clip-rule="evenodd" d="M70.0027 3.08804H66.0635V25.7239H80.497V22.3055H70.0027V3.08804ZM89.0227 9.89419C91.4179 9.89419 93.025 10.8489 93.9075 12.0192L94.0965 10.2022H97.5001V25.7239H94.0965L93.9075 23.907C93.025 25.0772 91.4179 26.0319 89.0227 26.0319C84.7051 26.0319 81.7744 22.6134 81.7744 17.963C81.7744 13.2819 84.7051 9.89419 89.0227 9.89419ZM89.842 13.1587C87.3839 13.1587 85.6191 15.0374 85.6191 17.963C85.6191 20.8888 87.3839 22.7675 89.842 22.7675C91.7329 22.7675 92.8675 21.7819 93.7183 20.4576V15.4685C92.8675 14.1443 91.7329 13.1587 89.842 13.1587ZM107.034 4.99745H103.252V10.2022H100.259V13.3436H103.252V20.2421C103.252 23.9993 105.553 26.0319 109.177 26.0319C110.753 26.0319 111.919 25.6008 112.707 25.108L111.698 22.2131C111.226 22.4903 110.532 22.7058 109.524 22.7058C108.043 22.7058 107.034 21.7819 107.034 20.2112V13.3436H111.824V10.2022H107.034V4.99745ZM120.066 4.99745H116.285V10.2022H113.291V13.3436H116.285V20.2421C116.285 23.9993 118.585 26.0319 122.209 26.0319C123.785 26.0319 124.951 25.6008 125.739 25.108L124.73 22.2131C124.258 22.4903 123.565 22.7058 122.556 22.7058C121.075 22.7058 120.066 21.7819 120.066 20.2112V13.3436H124.857V10.2022H120.066V4.99745ZM132.059 10.2022H128.277V25.7239H132.059V10.2022ZM130.168 2.96484C128.844 2.96484 127.836 3.91955 127.836 5.24383C127.836 6.5681 128.844 7.52281 130.168 7.52281C131.523 7.52281 132.531 6.5681 132.531 5.24383C132.531 3.91955 131.523 2.96484 130.168 2.96484ZM143.484 9.89419C138.599 9.89419 135.353 13.2819 135.353 17.963C135.353 22.6134 138.631 26.0319 143.515 26.0319C146.383 26.0319 148.557 24.7693 149.975 22.6134L147.265 20.5501C146.509 21.7819 145.28 22.7983 143.547 22.7983C140.742 22.7983 139.197 20.6732 139.197 17.963C139.197 15.2221 140.679 13.128 143.515 13.128C145.28 13.128 146.446 14.1134 147.17 15.3453L149.912 13.3128C148.494 11.1569 146.383 9.89419 143.484 9.89419ZM159.226 9.89419C164.111 9.89419 166.506 13.4667 166.506 17.8091V19.1025H155.286C155.382 21.5663 156.894 22.9214 159.541 22.9214C161.4 22.9214 162.756 22.1207 163.48 21.1352L166.096 23.2293C164.52 25.0772 162.441 26.0319 159.51 26.0319C154.594 26.0319 151.442 22.6442 151.442 17.9938C151.442 13.3128 154.657 9.89419 159.226 9.89419ZM159.163 12.8507C156.926 12.8507 155.412 14.2982 155.286 16.454H162.788C162.693 14.329 161.432 12.8507 159.163 12.8507Z" fill="#0E0E29"/>
</g>
<defs>
<clipPath id="clip0_452_2780">
<rect width="166.1" height="30" fill="white" transform="translate(0.576172)"/>
</clipPath>
</defs>
</svg>
