<svg width="134" height="30" viewBox="0 0 134 30" fill="none" xmlns="http://www.w3.org/2000/svg">
<g clip-path="url(#clip0_452_2777)">
<path fill-rule="evenodd" clip-rule="evenodd" d="M103.588 20.6878C107.018 20.6878 109.808 18.0249 109.808 14.7519C109.808 11.4787 107.018 8.81592 103.588 8.81592C100.158 8.81592 97.3672 11.4787 97.3672 14.7519C97.3672 18.0249 100.158 20.6878 103.588 20.6878ZM109.808 0H109.977H112.755V23.52H109.808V21.1716C108.107 22.6759 105.914 23.4999 103.588 23.4999C98.533 23.4999 94.4206 19.5755 94.4206 14.7519C94.4206 9.92796 98.533 6.00372 103.588 6.00372C105.914 6.00372 108.107 6.82764 109.808 8.33202V0ZM42.473 20.5841C45.9028 20.5841 48.6932 17.9213 48.6932 14.6482C48.6932 11.3752 45.9028 8.71242 42.473 8.71242C39.043 8.71242 36.2525 11.3752 36.2525 14.6482C36.2525 17.9213 39.043 20.5841 42.473 20.5841ZM36.2525 8.2287C37.9533 6.72432 40.1468 5.90027 42.473 5.90027C47.5277 5.90027 51.6401 9.82464 51.6401 14.6482C51.6401 19.4719 47.5277 23.3963 42.473 23.3963C40.1468 23.3963 37.9533 22.5724 36.2525 21.0679V29.4H33.3057V5.88H36.2525V8.2287ZM57.2628 13.2824C57.9261 10.6241 60.3973 8.71542 63.2162 8.71542C65.9982 8.71542 68.3286 10.5834 68.9497 13.2824H57.2628ZM63.2162 5.88C58.2371 5.88 54.1866 9.83682 54.1866 14.7C54.1866 19.5634 58.2371 23.52 63.2162 23.52C66.0044 23.52 68.5634 22.5004 70.2381 20.7226L71.1082 19.7984L71.2203 19.6792L71.0983 19.5692L69.2066 17.8696L69.0846 17.7598L68.9719 17.879L68.1018 18.8033C66.9921 19.9813 65.1657 20.6848 63.2162 20.6848C60.3973 20.6848 57.9262 18.776 57.2628 16.1176H72.0115V14.7C72.0115 9.7542 68.148 5.88 63.2162 5.88ZM130.179 14.7001C130.179 18 127.389 20.6847 123.959 20.6847C120.529 20.6847 117.739 18 117.739 14.7001C117.739 11.4 120.529 8.7153 123.959 8.7153C127.389 8.7153 130.179 11.4 130.179 14.7001ZM123.959 5.88C118.904 5.88 114.792 9.83664 114.792 14.7001C114.792 19.5634 118.904 23.52 123.959 23.52C129.014 23.52 133.126 19.5634 133.126 14.7001C133.126 9.83664 129.014 5.88 123.959 5.88ZM82.961 5.88C80.9134 5.88 78.9626 6.6393 77.4271 8.02608V5.88H74.5581V23.52H77.4271V14.518C77.4271 11.3063 79.9096 8.69328 82.961 8.69328C86.0129 8.69328 88.4961 11.3063 88.4961 14.518V23.52H91.3644V14.518C91.3644 9.75504 87.5946 5.88 82.961 5.88Z" fill="#1A2022"/>
<path fill-rule="evenodd" clip-rule="evenodd" d="M0.0319824 16.7996H13.8959V29.9996L27.76 16.7996V3.59961H13.8959L0.0319824 16.7996Z" fill="#FF4876"/>
</g>
<defs>
<clipPath id="clip0_452_2777">
<rect width="133.094" height="30" fill="white" transform="translate(0.0319824)"/>
</clipPath>
</defs>
</svg>
