<svg width="150" height="30" viewBox="0 0 150 30" fill="none" xmlns="http://www.w3.org/2000/svg">
<g clip-path="url(#clip0_452_2776)">
<path fill-rule="evenodd" clip-rule="evenodd" d="M14.0749 13.6389L14.3294 13.5697C16.2254 13.0162 18.0853 12.3515 19.899 11.5793C21.7387 10.876 23.465 9.91807 25.0247 8.7351C26.6804 7.45135 27.9267 5.73432 28.6174 3.7851C28.7663 3.46424 28.8756 3.12726 28.9429 2.78125C26.4511 6.09856 16.5726 6.44471 16.5726 6.44471L18.9046 4.36202C12.118 4.3848 5.5083 6.47453 0 10.3389C3.73078 10.7285 7.23992 12.257 10.0264 14.7063C11.3641 14.3024 12.7313 14.0139 14.0749 13.6505V13.6389ZM29.5644 13.3101C23.2791 13.0262 16.9909 13.807 10.9794 15.6178C12.2421 16.9021 13.296 18.3672 14.1045 19.962C19.0822 17.262 25.9835 13.812 29.5644 13.3216V13.3101ZM14.7319 21.3409C15.3223 22.8217 15.7007 24.3748 15.8564 25.9562L24.5393 17.262L14.7319 21.3409ZM19.2894 25.6043V25.512C19.2879 25.4748 19.2755 25.4388 19.2538 25.4082C19.234 25.3793 19.2007 25.362 19.1651 25.362H19.242C19.2892 25.3314 19.3162 25.2787 19.313 25.2236C19.3212 25.1491 19.2777 25.0784 19.2065 25.0505C19.1459 25.0391 19.0836 25.0391 19.023 25.0505H18.7803V25.7024H18.9105V25.4659H19.0052C19.0461 25.4561 19.0887 25.4561 19.1295 25.4659C19.17 25.4979 19.1903 25.5483 19.1828 25.5986V25.6966H19.313L19.2894 25.6043ZM18.9046 25.0966H18.9875C19.0323 25.0865 19.0788 25.0865 19.1236 25.0966C19.1496 25.1153 19.1632 25.1462 19.1591 25.1774C19.1642 25.2179 19.1395 25.2564 19.0999 25.2697C19.0647 25.2752 19.0287 25.2752 18.9934 25.2697H18.9046V25.0505V25.0966Z" fill="#282828"/>
<path fill-rule="evenodd" clip-rule="evenodd" d="M19.4493 24.9053C19.3373 24.7888 19.1809 24.7227 19.0172 24.7227C18.8534 24.7227 18.697 24.7888 18.5851 24.9053C18.4692 25.016 18.405 25.1683 18.4075 25.3264C18.405 25.4846 18.4692 25.6369 18.5851 25.7476C18.697 25.8641 18.8534 25.9302 19.0172 25.9302C19.1809 25.9302 19.3373 25.8641 19.4493 25.7476C19.5688 25.6385 19.6366 25.486 19.6366 25.3264C19.6366 25.1668 19.5688 25.0144 19.4493 24.9053ZM19.0172 25.8168C18.8835 25.8185 18.755 25.7663 18.6621 25.6726C18.4696 25.4799 18.4696 25.1729 18.6621 24.9803C18.7556 24.8873 18.8836 24.8348 19.0172 24.8348C19.1508 24.8348 19.2788 24.8873 19.3723 24.9803C19.5648 25.1729 19.5648 25.4799 19.3723 25.6726C19.2794 25.7663 19.1509 25.8185 19.0172 25.8168Z" fill="#282828"/>
<path fill-rule="evenodd" clip-rule="evenodd" d="M82.3067 17.5562C80.8857 17.5562 79.5727 16.8173 78.8622 15.6178C78.1517 14.4182 78.1517 12.9404 78.8622 11.7408C79.5727 10.5413 80.8857 9.80237 82.3067 9.80237C84.5034 9.80237 86.2842 11.5381 86.2842 13.6793C86.2842 15.8205 84.5034 17.5562 82.3067 17.5562ZM82.3067 5.57353C78.8722 5.61315 75.8188 7.71406 74.6303 10.8553C73.4419 13.9965 74.3648 17.5267 76.9507 19.7304C79.5365 21.9341 83.249 22.3544 86.2842 20.787V21.7678C86.2809 23.9076 84.5021 25.6415 82.3067 25.6447C81.1103 25.6447 80.1405 26.59 80.1405 27.7562C80.1405 28.9224 81.1103 29.8678 82.3067 29.8678C86.8761 29.8522 90.5771 26.2447 90.5931 21.7908V13.7139C90.5771 9.26007 86.8761 5.65257 82.3067 5.63699V5.57353ZM41.3605 17.5562C39.1639 17.5594 37.3805 15.8262 37.3772 13.6851C37.3739 11.5439 39.152 9.80556 41.3487 9.80237C43.5454 9.79919 45.3288 11.5324 45.332 13.6735C45.3353 15.8147 43.5572 17.553 41.3605 17.5562ZM41.3605 5.57353C36.7912 5.5891 33.0902 9.19661 33.0742 13.6505V25.1889C33.0742 25.9433 33.4871 26.6404 34.1574 27.0176C34.8276 27.3947 35.6534 27.3947 36.3236 27.0176C36.9939 26.6404 37.4068 25.9433 37.4068 25.1889V20.7697C38.6241 21.4196 39.9903 21.7589 41.3783 21.7562C45.9695 21.7562 49.6912 18.1285 49.6912 13.6533C49.6912 9.17814 45.9695 5.55045 41.3783 5.55045L41.3605 5.57353ZM64.6687 5.57353C60.0994 5.5891 56.3984 9.19661 56.3824 13.6505V19.6389C56.3824 20.8051 57.3523 21.7505 58.5487 21.7505C59.7451 21.7505 60.715 20.8051 60.715 19.6389V13.6793C60.715 11.5413 62.4931 9.80814 64.6865 9.80814C66.8799 9.80814 68.658 11.5413 68.658 13.6793V19.6678C68.6162 20.4474 69.0191 21.186 69.7057 21.5881C70.3922 21.9902 71.2504 21.9902 71.937 21.5881C72.6236 21.186 73.0265 20.4474 72.9846 19.6678V13.6793C72.9687 9.22545 69.2676 5.61795 64.6983 5.60237L64.6687 5.57353ZM117.595 17.487C115.398 17.4902 113.615 15.757 113.611 13.6158C113.608 11.4747 115.386 9.73633 117.583 9.73314C119.779 9.72996 121.563 11.4631 121.566 13.6043C121.569 15.7455 119.791 17.4838 117.595 17.487ZM117.595 5.5043C113.018 5.5043 109.308 9.12045 109.308 13.5812C109.308 18.042 113.018 21.6581 117.595 21.6581C122.171 21.6581 125.881 18.042 125.881 13.5812C125.865 9.12737 122.164 5.51987 117.595 5.5043ZM99.9507 17.5562C97.754 17.5562 95.9732 15.8205 95.9732 13.6793C95.9732 11.5381 97.754 9.80237 99.9507 9.80237C102.147 9.80237 103.928 11.5381 103.928 13.6793C103.925 15.8191 102.146 17.553 99.9507 17.5562ZM106.088 0.0350661C104.892 0.0350661 103.922 0.980434 103.922 2.1466V6.56583C100.646 4.82888 96.5837 5.43883 93.996 8.05614C91.4083 10.6734 90.933 14.6532 92.8347 17.7799C94.7365 20.9067 98.5467 22.4099 102.144 21.4528C105.742 20.4958 108.24 17.3142 108.249 13.6793V2.14084C108.249 0.974665 107.279 0.0292969 106.083 0.0292969L106.088 0.0350661ZM52.8607 5.57353C51.6643 5.57353 50.6945 6.5189 50.6945 7.68507V19.662C50.6945 20.8282 51.6643 21.7735 52.8607 21.7735C54.0571 21.7735 55.027 20.8282 55.027 19.662V7.69084C55.027 6.52466 54.0571 5.5793 52.8607 5.5793V5.57353ZM50.6945 2.1466C50.6945 3.31278 51.6643 4.25814 52.8607 4.25814C54.0571 4.25814 55.027 3.31278 55.027 2.1466C55.027 0.980434 54.0571 0.0350661 52.8607 0.0350661C51.6643 0.0350661 50.6945 0.980434 50.6945 2.1466ZM138.299 21.7101C138.874 21.7101 139.426 21.4868 139.832 21.0896C140.239 20.6923 140.466 20.1538 140.465 19.5928V10.6158C140.465 10.1283 140.87 9.73314 141.37 9.73314C143.565 9.73633 145.342 11.4712 145.342 13.6101V19.5697C145.342 20.7359 146.312 21.6812 147.508 21.6812C148.705 21.6812 149.674 20.7359 149.674 19.5697V13.6101C149.658 9.15622 145.957 5.54872 141.388 5.53314C140.336 5.53045 139.292 5.72636 138.316 6.11007C137.34 5.7265 136.297 5.53059 135.244 5.53314C130.676 5.55218 126.978 9.15738 126.958 13.6101V19.5697C126.958 20.7359 127.928 21.6812 129.124 21.6812C130.321 21.6812 131.291 20.7359 131.291 19.5697V13.6101C131.291 11.4712 133.068 9.73633 135.262 9.73314C135.762 9.73314 136.168 10.1283 136.168 10.6158V19.5697C136.166 20.1307 136.394 20.6693 136.8 21.0665C137.207 21.4637 137.758 21.687 138.334 21.687L138.299 21.7101Z" fill="#282828"/>
</g>
<defs>
<clipPath id="clip0_452_2776">
<rect width="149.745" height="30" fill="white"/>
</clipPath>
</defs>
</svg>
