<svg width="176" height="30" viewBox="0 0 176 30" fill="none" xmlns="http://www.w3.org/2000/svg">
<g clip-path="url(#clip0_452_2779)">
<path fill-rule="evenodd" clip-rule="evenodd" d="M61.1149 19.1206C61.8431 17.5335 63.3695 16.4528 65.382 16.4528C67.3945 16.4528 68.8863 17.3645 69.5107 19.1206H61.1149ZM74.2983 21.1469C74.2983 16.2837 70.6553 12.4002 65.3474 12.4002C60.3514 12.4002 56.327 16.3174 56.327 21.1808C56.327 26.0438 60.0741 29.9612 65.4863 29.9612C69.2346 29.9612 71.9305 28.2013 73.4473 25.6782L69.6774 23.49C68.8776 24.9837 67.3424 25.9088 65.5209 25.9088C63.0229 25.9088 61.4619 24.6927 60.9066 22.8354H74.2983V21.1469ZM171.062 21.1469C171.062 18.648 169.189 16.6216 166.622 16.6216C163.985 16.6216 161.973 18.5466 161.973 21.1469C161.973 23.7472 163.985 25.7061 166.622 25.7061C169.189 25.7061 171.062 23.6461 171.062 21.1469ZM157.324 21.1808C157.324 15.2036 161.834 12.4002 165.754 12.4002C168.009 12.4002 169.779 13.2108 170.924 14.3926V4.97069H175.677V29.6233H170.924V27.7325C169.779 29.0496 167.94 29.9612 165.685 29.9612C162.007 29.9612 157.324 27.1243 157.324 21.1808ZM153.832 10.168C155.403 10.168 156.675 8.92899 156.675 7.40042C156.675 5.87184 155.403 4.63281 153.832 4.63281C152.262 4.63281 150.99 5.87184 150.99 7.40042C150.99 8.92899 152.262 10.168 153.832 10.168ZM151.456 12.7381H156.209V29.6233H151.456V17.2298L149.731 17.2295L151.456 12.7381ZM138.794 12.7381H143.513V15.5074C144.38 13.7513 145.941 12.7381 148.3 12.7381H150.209L148.485 17.2295H147.19C144.658 17.2295 143.547 18.5129 143.547 21.6536V29.6233H138.794V12.7381ZM112.055 17.2972C112.055 10.2726 117.502 4.63281 124.996 4.63281C128.744 4.63281 131.897 5.94667 134.179 8.04038C135.108 8.89228 135.892 9.8736 136.514 10.9481L132.282 13.4471C130.721 10.6439 128.327 9.19182 125.031 9.19182C120.417 9.19182 116.843 12.8731 116.843 17.2972C116.843 21.8225 120.347 25.402 125.204 25.402C128.882 25.402 131.484 23.3759 132.386 20.2351H124.441V15.7437H137.59V17.6347C137.59 24.2541 132.733 29.9612 125.204 29.9612C117.294 29.9612 112.055 24.119 112.055 17.2972ZM106.326 21.1469C106.326 18.648 104.453 16.6216 101.886 16.6216C99.2489 16.6216 97.2364 18.5466 97.2364 21.1469C97.2364 23.7472 99.2489 25.7061 101.886 25.7061C104.453 25.7061 106.326 23.6461 106.326 21.1469ZM92.5876 21.1808C92.5876 15.2036 97.0975 12.4002 101.018 12.4002C103.273 12.4002 105.042 13.2108 106.187 14.3926V4.97069H110.94V29.6233H106.187V27.7325C105.042 29.0496 103.204 29.9612 100.949 29.9612C97.2713 29.9612 92.5876 27.1243 92.5876 21.1808ZM75.4094 12.7381H80.1281V14.6292C81.238 13.2445 82.9383 12.4002 84.9157 12.4002C89.0093 12.4002 91.4727 14.9669 91.4727 19.3232V29.6233H86.6502V19.9311C86.6502 17.6686 85.5747 16.3514 83.4587 16.3514C81.6544 16.3514 80.1627 17.5672 80.1627 20.4038V29.6233H75.4094V12.7381ZM36.6016 25.5372L41.0081 22.1599C42.2567 24.2541 44.2344 25.4697 46.4891 25.4697C48.9528 25.4697 50.2711 23.9164 50.2711 22.2274C50.2711 20.2014 47.7381 19.56 45.0322 18.749C41.6325 17.7361 37.8507 16.4528 37.8507 11.7247C37.8507 7.77362 41.3898 4.63281 46.2812 4.63281C50.4099 4.63281 52.769 6.15256 54.816 8.21281L50.826 11.1508C49.7855 9.63125 48.2936 8.82048 46.3157 8.82048C44.0608 8.82048 42.8469 10.0026 42.8469 11.556C42.8469 13.4471 45.2752 14.0892 47.9811 14.9669C51.4162 16.0474 55.3016 17.5335 55.3016 22.2616C55.3016 26.1788 52.1096 29.9612 46.524 29.9612C41.9448 29.9612 38.8918 28.0704 36.6016 25.5372Z" fill="#212F38"/>
<path fill-rule="evenodd" clip-rule="evenodd" d="M10.6558 29.6244H20.7858V19.7637H10.6558V29.6244Z" fill="#9DD6E3"/>
<path fill-rule="evenodd" clip-rule="evenodd" d="M0.525635 19.7632H10.6557V9.90234H0.525635V19.7632Z" fill="#9DD6E3"/>
<path fill-rule="evenodd" clip-rule="evenodd" d="M0.525879 29.6244H10.6559V19.7637H0.525879V29.6244Z" fill="#3F72AB"/>
<path fill-rule="evenodd" clip-rule="evenodd" d="M20.7859 19.7632H30.9159V9.90234H20.7859V19.7632Z" fill="#00A9D1"/>
<path fill-rule="evenodd" clip-rule="evenodd" d="M10.6558 9.90367H20.7858V0.0429688H10.6558V9.90367Z" fill="#00A9D1"/>
<path fill-rule="evenodd" clip-rule="evenodd" d="M10.6558 19.7631H20.7858V9.90234H10.6558V19.7631Z" fill="#2191C4"/>
<path fill-rule="evenodd" clip-rule="evenodd" d="M20.7859 9.90367H30.9159V0.0429688H20.7859V9.90367Z" fill="#3F72AB"/>
</g>
<defs>
<clipPath id="clip0_452_2779">
<rect width="175.298" height="30" fill="white" transform="translate(0.474854)"/>
</clipPath>
</defs>
</svg>
