<svg width="124" height="17" viewBox="0 0 124 17" fill="none" xmlns="http://www.w3.org/2000/svg">
<path d="M8.05408 0.0332031L9.78003 5.56107H15.3653L10.8467 8.97748L12.5727 14.5053L8.05408 11.0889L3.53548 14.5053L5.26143 8.97748L0.74283 5.56107H6.32813L8.05408 0.0332031Z" fill="#F0B143"/>
<path d="M34.9603 0.0332031L36.6863 5.56107H42.2716L37.753 8.97748L39.4789 14.5053L34.9603 11.0889L30.4417 14.5053L32.1677 8.97748L27.6491 5.56107H33.2344L34.9603 0.0332031Z" fill="#F0B143"/>
<path d="M61.8666 0.0332031L63.5925 5.56107H69.1778L64.6592 8.97748L66.3852 14.5053L61.8666 11.0889L57.348 14.5053L59.0739 8.97748L54.5553 5.56107H60.1406L61.8666 0.0332031Z" fill="#F0B143"/>
<path d="M88.7728 0.0332031L90.4988 5.56107H96.0841L91.5655 8.97748L93.2914 14.5053L88.7728 11.0889L84.2542 14.5053L85.9802 8.97748L81.4616 5.56107H87.0469L88.7728 0.0332031Z" fill="#F0B143"/>
<path d="M115.679 0.0332031L117.405 5.56107H122.99L118.472 8.97748L120.198 14.5053L115.679 11.0889L111.16 14.5053L112.886 8.97748L108.368 5.56107H113.953L115.679 0.0332031Z" fill="#F0B143"/>
</svg>
