<svg width="41" height="36" viewBox="0 0 41 36" fill="none" xmlns="http://www.w3.org/2000/svg">
<path id="&#226;&#128;&#156;" d="M41 0V6.48341C37.6531 7.05213 35.3102 8.24644 33.9714 10.0664C32.6326 11.8863 31.9633 15.128 31.9633 19.7915H40.498V36H24.098V22.3507C24.098 15.2986 25.381 9.83886 27.9469 5.97156C30.5129 1.99052 34.8639 0 41 0ZM16.902 0V6.48341C13.5551 7.05213 11.2122 8.24644 9.87347 10.0664C8.53469 11.8863 7.86531 15.128 7.86531 19.7915H16.4V36H0V22.3507C0 15.2986 1.28299 9.83886 3.84898 5.97156C6.41497 1.99052 10.766 0 16.902 0Z" fill="white"/>
</svg>
