<svg width="62" height="57" viewBox="0 0 62 57" fill="none" xmlns="http://www.w3.org/2000/svg">
<g id="pattern">
<g id="Pattern">
<path d="M-0.000173569 0L5.65534 21.1954C8.16891 30.6156 19.8948 33.7707 26.762 26.8747C33.6292 19.9786 30.4872 8.20342 21.1065 5.67929L-0.000173569 0Z" fill="#2241CF"/>
<path d="M4.74082 31.5336L7.53724 47.55C9.12562 56.6475 20.2584 60.1783 26.762 53.6473C33.2656 47.1163 29.7496 35.9368 20.6902 34.3417L4.74082 31.5336Z" fill="#F0B143"/>
</g>
<path id="Ellipse 1523" d="M37 7C40.283 7 43.5339 7.64664 46.5671 8.90301C49.6002 10.1594 52.3562 12.0009 54.6777 14.3223C56.9991 16.6438 58.8406 19.3998 60.097 22.4329C61.3534 25.4661 62 28.717 62 32C62 35.283 61.3534 38.5339 60.097 41.5671C58.8406 44.6002 56.9991 47.3562 54.6777 49.6777C52.3562 51.9991 49.6002 53.8406 46.5671 55.097C43.5339 56.3534 40.283 57 37 57L37 7Z" fill="#FF3C78"/>
</g>
</svg>
