<svg width="21" height="18" viewBox="0 0 21 18" fill="none" xmlns="http://www.w3.org/2000/svg">
<g clip-path="url(#clip0_1920_4135)">
<path d="M12.6464 7.77338C12.7026 8.10307 12.7428 8.43277 12.7428 8.86043C12.7428 12.5939 10.484 15.2402 7.08367 15.2402C3.82807 15.2402 1.19141 12.3177 1.19141 8.70898C1.19141 5.1003 3.82807 2.17773 7.08367 2.17773C8.67532 2.17773 10.0017 2.81926 11.0306 3.88851L9.43091 5.59038C8.99681 5.12704 8.23318 4.58351 7.08367 4.58351C5.07404 4.58351 3.43415 6.42795 3.43415 8.70898C3.43415 10.99 5.07404 12.8345 7.08367 12.8345C9.41483 12.8345 10.2911 10.9722 10.4277 10.0188H7.08367V7.77335H12.6464V7.77338ZM18.3363 7.99235V6.09648H16.6177V7.99235H14.9073V9.89733H16.6177V11.7932H18.3363V9.89733H20.0466V7.99235H18.3363Z" fill="#F04D3F"/>
</g>
<defs>
<clipPath id="clip0_1920_4135">
<rect width="19.6409" height="17.4167" fill="white" transform="translate(0.796875)"/>
</clipPath>
</defs>
</svg>
