<svg width="20" height="19" viewBox="0 0 20 19" fill="none" xmlns="http://www.w3.org/2000/svg">
<path d="M10.1002 1.90039C5.77921 1.90039 3.52051 4.56039 3.52051 7.50539C3.52051 8.93039 4.30614 10.3554 5.5828 11.1154C5.97562 11.3054 5.87741 11.1154 6.17203 9.97539C6.17203 9.88039 6.17203 9.78539 6.07382 9.69039C4.30614 7.60039 5.77921 3.51539 9.90379 3.51539C15.8943 3.51539 14.7158 11.4954 10.984 11.4954C10.1984 11.5904 9.51098 11.0204 9.51098 10.2604V9.88039C9.90379 8.83539 10.1984 7.88539 10.2966 6.84039C10.2966 4.84539 7.25227 5.13039 7.25227 7.79039C7.25227 8.26539 7.35048 8.74039 7.54689 9.12039C7.54689 9.12039 6.56484 13.0154 6.36844 13.6804C6.17203 14.8204 6.27023 15.9604 6.46664 17.0054C6.36844 17.1004 6.46664 17.1004 6.46664 17.1004H6.56484C7.25227 16.1504 7.8415 15.2004 8.23432 14.1554C8.33252 13.6804 8.82354 11.9704 8.82354 11.9704C9.31457 12.6354 10.1984 13.0154 11.0822 13.0154C14.1266 13.0154 16.2871 10.4504 16.2871 7.31539C16.2871 4.18039 13.5374 1.90039 10.1002 1.90039Z" fill="#CB2056"/>
</svg>
